<svg width="190" height="36" viewBox="0 0 190 36" fill="none" xmlns="http://www.w3.org/2000/svg">
<path d="M27.76 0.279999H32.36V26.16H27.76V13.64H20.52V9.44H27.76V0.279999ZM22.36 1.32V5.48H14.68V10.4C14.68 14.28 15.4 16 23.24 18.24L22.24 22.36C18.04 21.52 14.76 20.16 12.4 18.28C10 20.28 6.44 21.72 1.48 22.84L0.72 18.64C9.08 16.08 9.96 14.4 9.96 10.4V5.48H1.92V1.32H22.36ZM8.12 30.92H33V35.12H3.48V24.2H8.12V30.92ZM65.7647 3.52H69.6047V7.72H65.7647V11.52H69.6047V15.64H65.7647V20.84H61.1647V0.279999H65.7647V3.52ZM56.2447 1.32V12.76H41.5247V16.28H57.0447V20.24H36.8847V8.8H51.6047V5.28H37.2847V1.32H56.2447ZM61.2047 26.68H37.4847V22.68H65.7647V35.72H61.2047V26.68ZM87.0094 15.56C75.5294 15.56 71.7294 13.24 71.7294 8.04C71.7294 3 75.5294 0.519999 87.0094 0.519999C98.4894 0.519999 102.289 3 102.289 8.04C102.289 13.24 98.4894 15.56 87.0094 15.56ZM87.0094 11.4C96.0094 11.4 97.6494 10.2 97.6494 8.04C97.6494 5.92 96.0094 4.68 87.0094 4.68C78.0094 4.68 76.3694 5.92 76.3694 8.04C76.3694 10.2 78.0094 11.4 87.0094 11.4ZM71.2494 22.24V18.12H102.729V22.24H71.2494ZM76.8494 30.96H102.209V35.12H72.2094V24.8H76.8494V30.96ZM184.137 35.16L185.417 26.32L189.737 26.96L188.417 35.76L184.137 35.16Z" fill="#222222"/>
<path d="M138.968 0.279999H146.168V19.76H138.968V0.279999ZM114.728 20.08L113.808 13.6C124.048 12.72 127.808 10 127.848 7.68V7.28H114.688V1.08H135.248V7.48C135.248 13.76 128.528 18.96 114.728 20.08ZM146.328 35.56H116.328V29.96H120.848V26.56H116.328V20.96H146.328V26.56H141.808V29.96H146.328V35.56ZM134.808 26.56H127.848V29.96H134.808V26.56ZM174.773 0.279999H181.373V34.96H174.773V0.279999ZM150.133 33.68L148.213 26.2C155.173 22.48 156.853 16.96 156.853 9.28V7.48H149.493V1.08H163.853V10.08C163.853 11.16 163.813 12.24 163.733 13.28H166.613V0.479999H173.213V34.76H166.613V19.68H162.533C160.693 25.6 156.853 30.28 150.133 33.68Z" fill="#4A90E2"/>
</svg>
