<svg width="250" height="38" viewBox="0 0 250 38" fill="none" xmlns="http://www.w3.org/2000/svg">
<path d="M26.48 6.56H1.36V2.32H31.12V16.88C31.12 19.24 30.8 24 30.44 26.16H25.76C26.12 24 26.48 20.16 26.48 16.64V6.56ZM5.76 15.64H10.48V30.6H15.32V15.64H20.04V30.6H32.12V34.76H0.64V30.6H5.76V15.64ZM66.2047 16.72V20.84H36.4047V9.52H61.3247V6.44H36.6047V2.32H65.9647V13.64H41.0447V16.72H66.2047ZM66.9247 23.8V27.88H60.0447V36.56H55.3247V27.88H47.2847V36.56H42.5647V27.88H35.4447V23.8H66.9247ZM71.2894 2.08H75.9294V12.04H100.889V16.24H71.2894V2.08ZM70.2494 23.24V19.12H101.729V23.24H70.2494ZM75.8494 31.96H101.209V36.12H71.2094V25.8H75.8494V31.96Z" fill="#222222"/>
<path d="M143.768 14.08H146.808V20.48H143.768V35.96H136.968V1.28H143.768V14.08ZM131.328 26.76H135.168V33.36H113.848V2.08H134.768V8.68H131.328V26.76ZM120.648 8.68V26.76H124.528V8.68H120.648ZM179.493 16H148.933V2.08H179.293V7.76H170.013V10.32H179.493V16ZM163.213 7.76H155.733V10.32H163.213V7.76ZM148.373 23.28V17.48H180.013V23.28H148.373ZM160.613 25.6V24.4H167.813V25.6C167.813 27.92 171.533 29.88 180.013 30.88L179.213 37.08C172.253 36.56 166.812 34.92 164.213 33.04C161.573 34.92 156.173 36.52 149.213 37.08L148.413 30.88C156.893 29.88 160.613 27.88 160.613 25.6ZM193.537 35.48C187.657 35.48 183.537 33 183.537 25.36C183.537 18.12 187.057 15.24 193.537 15.24C200.017 15.24 203.537 18.12 203.537 25.36C203.537 33 199.417 35.48 193.537 35.48ZM213.377 14.08H216.417V20.48H213.377V35.96H206.177V1.28H213.377V14.08ZM183.977 5.4L185.977 0.0399985C187.657 0.999998 190.217 1.48 192.497 1.48H202.537V7.08H190.977C187.857 7.08 185.777 6.52 183.977 5.4ZM204.057 8.2V14.2H183.057V8.2H204.057ZM193.537 29.88C195.457 29.88 197.337 28.56 197.337 25.36C197.337 21.96 195.537 20.84 193.537 20.84C191.537 20.84 189.737 21.96 189.737 25.36C189.737 28.56 191.617 29.88 193.537 29.88ZM243.382 1.28H249.982V35.96H243.382V1.28ZM218.742 34.68L216.822 27.2C223.782 23.48 225.462 17.96 225.462 10.28V8.48H218.102V2.08H232.462V11.08C232.462 12.16 232.422 13.24 232.342 14.28H235.222V1.48H241.822V35.76H235.222V20.68H231.142C229.302 26.6 225.462 31.28 218.742 34.68Z" fill="#FB9225"/>
</svg>
