<svg width="251" height="85" viewBox="0 0 251 85" fill="none" xmlns="http://www.w3.org/2000/svg">
<g id="&#236;&#160;&#132;&#235;&#158;&#181;&#236;&#157;&#128; &#234;&#185;&#138;&#234;&#178;&#140;, &#234;&#181;&#144;&#235;&#165;&#152;&#235;&#138;&#148; &#235;&#148;&#176;&#235;&#156;&#187;&#237;&#149;&#152;&#234;&#178;&#140;">
<path d="M27.76 0.279999H32.36V26.16H27.76V13.64H20.52V9.44H27.76V0.279999ZM22.36 1.32V5.48H14.68V10.4C14.68 14.28 15.4 16 23.24 18.24L22.24 22.36C18.04 21.52 14.76 20.16 12.4 18.28C10 20.28 6.44 21.72 1.48 22.84L0.72 18.64C9.08 16.08 9.96 14.4 9.96 10.4V5.48H1.92V1.32H22.36ZM8.12 30.92H33V35.12H3.48V24.2H8.12V30.92ZM65.7647 3.52H69.6047V7.72H65.7647V11.52H69.6047V15.64H65.7647V20.84H61.1647V0.279999H65.7647V3.52ZM56.2447 1.32V12.76H41.5247V16.28H57.0447V20.24H36.8847V8.8H51.6047V5.28H37.2847V1.32H56.2447ZM61.2047 26.68H37.4847V22.68H65.7647V35.72H61.2047V26.68ZM87.0094 15.56C75.5294 15.56 71.7294 13.24 71.7294 8.04C71.7294 3 75.5294 0.519999 87.0094 0.519999C98.4894 0.519999 102.289 3 102.289 8.04C102.289 13.24 98.4894 15.56 87.0094 15.56ZM87.0094 11.4C96.0094 11.4 97.6494 10.2 97.6494 8.04C97.6494 5.92 96.0094 4.68 87.0094 4.68C78.0094 4.68 76.3694 5.92 76.3694 8.04C76.3694 10.2 78.0094 11.4 87.0094 11.4ZM71.2494 22.24V18.12H102.729V22.24H71.2494ZM76.8494 30.96H102.209V35.12H72.2094V24.8H76.8494V30.96ZM184.137 35.16L185.417 26.32L189.737 26.96L188.417 35.76L184.137 35.16ZM27.48 53.56H2.36V49.32H32.12V63.88C32.12 66.24 31.8 71 31.44 73.16H26.76C27.12 71 27.48 67.16 27.48 63.64V53.56ZM6.76 62.64H11.48V77.6H16.32V62.64H21.04V77.6H33.12V81.76H1.64V77.6H6.76V62.64ZM67.2047 63.72V67.84H37.4047V56.52H62.3247V53.44H37.6047V49.32H66.9647V60.64H42.0447V63.72H67.2047ZM67.9247 70.8V74.88H61.0447V83.56H56.3247V74.88H48.2847V83.56H43.5647V74.88H36.4447V70.8H67.9247ZM72.2894 49.08H76.9294V59.04H101.889V63.24H72.2894V49.08ZM71.2494 70.24V66.12H102.729V70.24H71.2494ZM76.8494 78.96H102.209V83.12H72.2094V72.8H76.8494V78.96Z" fill="#222222"/>
<path d="M138.968 0.279999H146.168V19.76H138.968V0.279999ZM114.728 20.08L113.808 13.6C124.048 12.72 127.808 10 127.848 7.68V7.28H114.688V1.08H135.248V7.48C135.248 13.76 128.528 18.96 114.728 20.08ZM146.328 35.56H116.328V29.96H120.848V26.56H116.328V20.96H146.328V26.56H141.808V29.96H146.328V35.56ZM134.808 26.56H127.848V29.96H134.808V26.56ZM174.773 0.279999H181.373V34.96H174.773V0.279999ZM150.133 33.68L148.213 26.2C155.173 22.48 156.853 16.96 156.853 9.28V7.48H149.493V1.08H163.853V10.08C163.853 11.16 163.813 12.24 163.733 13.28H166.613V0.479999H173.213V34.76H166.613V19.68H162.533C160.693 25.6 156.853 30.28 150.133 33.68Z" fill="#4A90E2"/>
<path d="M144.768 61.08H147.808V67.48H144.768V82.96H137.968V48.28H144.768V61.08ZM132.328 73.76H136.168V80.36H114.848V49.08H135.768V55.68H132.328V73.76ZM121.648 55.68V73.76H125.528V55.68H121.648ZM180.493 63H149.933V49.08H180.293V54.76H171.013V57.32H180.493V63ZM164.213 54.76H156.733V57.32H164.213V54.76ZM149.373 70.28V64.48H181.013V70.28H149.373ZM161.613 72.6V71.4H168.813V72.6C168.813 74.92 172.533 76.88 181.013 77.88L180.213 84.08C173.253 83.56 167.812 81.92 165.213 80.04C162.573 81.92 157.173 83.52 150.213 84.08L149.413 77.88C157.893 76.88 161.613 74.88 161.613 72.6ZM194.537 82.48C188.657 82.48 184.537 80 184.537 72.36C184.537 65.12 188.057 62.24 194.537 62.24C201.017 62.24 204.537 65.12 204.537 72.36C204.537 80 200.417 82.48 194.537 82.48ZM214.377 61.08H217.417V67.48H214.377V82.96H207.177V48.28H214.377V61.08ZM184.977 52.4L186.977 47.04C188.657 48 191.217 48.48 193.497 48.48H203.537V54.08H191.977C188.857 54.08 186.777 53.52 184.977 52.4ZM205.057 55.2V61.2H184.057V55.2H205.057ZM194.537 76.88C196.457 76.88 198.337 75.56 198.337 72.36C198.337 68.96 196.537 67.84 194.537 67.84C192.537 67.84 190.737 68.96 190.737 72.36C190.737 75.56 192.617 76.88 194.537 76.88ZM244.382 48.28H250.982V82.96H244.382V48.28ZM219.742 81.68L217.822 74.2C224.782 70.48 226.462 64.96 226.462 57.28V55.48H219.102V49.08H233.462V58.08C233.462 59.16 233.422 60.24 233.342 61.28H236.222V48.48H242.822V82.76H236.222V67.68H232.142C230.302 73.6 226.462 78.28 219.742 81.68Z" fill="#FB9225"/>
</g>
</svg>
